<?xml version="1.0" encoding="UTF-8"?>
<svg width="480" height="480" version="1.1" xmlns="http://www.w3.org/2000/svg">
<g>
<rect width="480" height="480" fill="#646496"/>
</g>
<g>
<path d="m0 480v-480h480l-40 40h-400v400z" fill="#8282b4"/>
<path d="m480 0-40 40v400h-400l-40 40h480z" fill="#464678"/>
</g>
<g>
<path d="m248 90a160 160 0 0 0-160 160 160 160 0 0 0 160 160 160 160 0 0 0 113.07-46.934l-42.4-42.4a100 100 0 0 1-70.666 29.334 100 100 0 0 1-100-100 100 100 0 0 1 100-100 100 100 0 0 1 70.666 29.334l42.4-42.4a160 160 0 0 0-113.07-46.934z" fill="#000003"/>
<g style="font-feature-settings:normal;font-variant-caps:normal;font-variant-ligatures:normal;font-variant-numeric:normal" aria-label="ru l">
<path d="m258.03 214.58q-13.447 0-18.545 3.6035-2.6367 1.7578-5.2734 5.8887-5.9766-9.1406-12.393-9.1406h-0.43945q-5.0098 0-8.877 3.6914-3.5156 3.5156-3.5156 8.7012v55.811q0 5.1855 3.5156 8.7012 3.5156 3.6035 8.7012 3.6035h0.26368q5.1855 0 8.7012-3.6035 3.6914-3.7793 3.6914-8.7012v-34.014t0.17579 0q0 0 0-0.17578 0-0.8789 0.17578-1.9336 1.0547-4.6582 6.8555-8.7891 5.7129-4.043 13.799-2.7246 4.834 0.70312 6.0645-7.1191l1.7578-8.1738q0.43945-2.1094-0.9668-3.9551-1.2305-1.6699-3.6914-1.6699z" style=""/>
<path d="m272.97 257.12q0 16.963 9.3164 28.828 10.811 13.799 29.18 9.9316 7.7344-1.582 18.633-7.998-0.0879 2.8125 2.5488 5.625 2.2852 2.373 5.4492 2.373h9.3164q3.5156 0 5.7129-2.373 2.2852-2.373 2.2852-5.625v-61.523q0-5.1856-3.5156-8.7012-2.373-2.373-8.7012-2.373h-0.26367q-6.3281-0.0879-8.877 2.373-3.6914 3.5156-3.6914 8.7012v36.475q0 0.52734-0.26367 1.9336-1.1426 5.625-8.3496 10.02-7.1191 4.2188-16.348-0.35157-7.7344-3.6914-7.7344-15.557v-33.662q0-4.043-3.5156-7.5586-2.4609-2.373-8.7012-2.373h-0.26367q-6.2402-0.0879-8.7012 2.373-3.5156 3.6035-3.5156 7.5586z" style=""/>
<path d="m396.12 282.52q0 5.4492-3.8672 9.3164-3.7793 3.7793-9.3164 3.7793h-0.26368q-5.2734 0-9.1406-3.7793-3.8672-3.8672-3.8672-9.3164v-84.023q0-5.4492 3.8672-9.3164 3.6035-3.6914 9.1406-3.6914h0.26368q5.5371 0 9.3164 3.6914 3.8672 3.8672 3.8672 9.3164z" style=""/>
</g>
</g>
<g fill="#fff">
<path d="m240 80a160 160 0 0 0-160 160 160 160 0 0 0 160 160 160 160 0 0 0 113.07-46.934l-42.4-42.4a100 100 0 0 1-70.666 29.334 100 100 0 0 1-100-100 100 100 0 0 1 100-100 100 100 0 0 1 70.666 29.334l42.4-42.4a160 160 0 0 0-113.07-46.934z"/>
<g style="font-feature-settings:normal;font-variant-caps:normal;font-variant-ligatures:normal;font-variant-numeric:normal" aria-label="ru l">
<path d="m250.03 204.58q-13.447 0-18.545 3.6035-2.6367 1.7578-5.2734 5.8887-5.9766-9.1406-12.393-9.1406h-0.43945q-5.0098 0-8.877 3.6914-3.5156 3.5156-3.5156 8.7012v55.811q0 5.1855 3.5156 8.7012 3.5156 3.6035 8.7012 3.6035h0.26368q5.1855 0 8.7012-3.6035 3.6914-3.7793 3.6914-8.7012v-34.014t0.17579 0q0 0 0-0.17578 0-0.8789 0.17578-1.9336 1.0547-4.6582 6.8555-8.7891 5.7129-4.043 13.799-2.7246 4.834 0.70312 6.0645-7.1191l1.7578-8.1738q0.43945-2.1094-0.9668-3.9551-1.2305-1.6699-3.6914-1.6699z" style=""/>
<path d="m264.97 247.12q0 16.963 9.3164 28.828 10.811 13.799 29.18 9.9316 7.7344-1.582 18.633-7.998-0.0879 2.8125 2.5488 5.625 2.2852 2.373 5.4492 2.373h9.3164q3.5156 0 5.7129-2.373 2.2852-2.373 2.2852-5.625v-61.523q0-5.1856-3.5156-8.7012-2.373-2.373-8.7012-2.373h-0.26367q-6.3281-0.0879-8.877 2.373-3.6914 3.5156-3.6914 8.7012v36.475q0 0.52734-0.26367 1.9336-1.1426 5.625-8.3496 10.02-7.1191 4.2188-16.348-0.35157-7.7344-3.6914-7.7344-15.557v-33.662q0-4.043-3.5156-7.5586-2.4609-2.373-8.7012-2.373h-0.26367q-6.2402-0.0879-8.7012 2.373-3.5156 3.6035-3.5156 7.5586z" style=""/>
<path d="m388.12 272.52q0 5.4492-3.8672 9.3164-3.7793 3.7793-9.3164 3.7793h-0.26368q-5.2734 0-9.1406-3.7793-3.8672-3.8672-3.8672-9.3164v-84.023q0-5.4492 3.8672-9.3164 3.6035-3.6914 9.1406-3.6914h0.26368q5.5371 0 9.3164 3.6914 3.8672 3.8672 3.8672 9.3164z" style=""/>
</g>
</g>
</svg>
