/* XPM */
static char const * icon_xpm[] = {
"32 32 4 1",
"0	c #000000",
"1	c #004992",
"2	c #6D92DB",
"3	c #FFFFFF",
"00000000000000000000000000000000",
"01111111111111111111111111111110",
"01111111111111111111111111111110",
"01111111111111111111111111111110",
"01111111111111111111111111111110",
"01111111111111111111111111111110",
"01111122222222222222222222111110",
"01111122222222222222222222111110",
"01111122222222222222222222111110",
"01111122222222222222222222111110",
"01111122220000000000002222111110",
"01111122220333333333302222111110",
"01111122220033333333302222111110",
"01111122220003300003302222111110",
"01111122220000330000002222111110",
"01111122220000033000002222111110",
"01111122220000033000002222111110",
"01111122220000330000002222111110",
"01111122220003300003302222111110",
"01111122220033333333302222111110",
"01111122220333333333302222111110",
"01111122220000000000002222111110",
"01111122222222222222222222111110",
"01111122222222222222222222111110",
"01111122222222222222222222111110",
"01111122222222222222222222111110",
"01111111111111111111111111111110",
"01111111111111111111111111111110",
"01111111111111111111111111111110",
"01111111111111111111111111111110",
"01111111111111111111111111111110",
"00000000000000000000000000000000"
};
