<?xml version="1.0" encoding="UTF-8"?>
<svg width="48" height="48" version="1.0" xmlns="http://www.w3.org/2000/svg">
 <path d="m24 4c11 0 18 6 18 16s-11 24-18 24-18-14-18-24 7-16 18-16z" fill="#e6e646" stroke="#000" stroke-linecap="round" stroke-linejoin="round" stroke-width="2"/>
 <ellipse cx="38" cy="20" rx="7" ry="10"/>
 <ellipse cx="10" cy="20" rx="7" ry="10"/>
 <path d="m18 33s2 6 6 6 8-9 8-9c-5.1961 3.5031-8.2137 3.9644-14 3z" stroke="#000" stroke-linecap="round" stroke-linejoin="round"/>
 <path d="m21 22h6l-3 5z" stroke="#000" stroke-linecap="round" stroke-linejoin="round"/>
 <ellipse cx="10" cy="20" rx="5" ry="8" fill="#fff"/>
 <ellipse cx="11" cy="21" rx="5" ry="8"/>
 <ellipse cx="38" cy="20" rx="5" ry="8" fill="#fff"/>
 <ellipse cx="39" cy="21" rx="5" ry="8"/>
</svg>
