<?xml version="1.0" encoding="UTF-8"?>
<svg width="144" height="96" version="1.0" xmlns="http://www.w3.org/2000/svg">
	<g stroke="#000">
		<path d="m1 95 5-10 12-12 5 5-12 12z" fill="#fff" stroke-linecap="round" stroke-linejoin="round"/>
		<path d="m6 85 5 5" fill="none" stroke-width="1px"/>
		<path d="m52.308 82.5c-1.4142-2.8284 6.364-10.607 9.1924-9.1924l9.1924 9.1924c-2.8284 0-9.1924 6.364-9.1924 9.1924z" fill="#fff" stroke-linejoin="round" stroke-width="1px"/>
		<path d="m61.5 91.692c3.5355 0.70711 9.8995-5.6569 9.1924-9.1924l-9.1924-9.1924c0.70711 3.5355-5.6568 9.8995-9.1924 9.1924z" fill="#fff" stroke-linejoin="round" stroke-width="1px"/>
		<path d="m51 94c-3 0-3-8.5 2-14.5h5.5c-1.3786 1.235-2.4777 2.7105-4.5 4.5-0.10352 4.5353-1.0748 9.0809-3 10z" fill="#fff" stroke-linejoin="round" stroke-width="1px"/>
		<rect x="26.5" y="80.5" width="18" height="6" fill="#fff" stroke-linejoin="round"/>
		<path d="m35.5 83v-2" fill="none" stroke-width="1px"/>
		<path d="m30.5 83v-2" fill="none" stroke-width="1px"/>
		<path d="m40.5 83v-2" fill="none" stroke-width="1px"/>
		<path d="m118 94-7-20-13 14z" fill="#fff" stroke-linejoin="round"/>
		<rect x="74.5" y="74.5" width="19" height="19" fill="#fff" stroke-linejoin="round"/>
	</g>
</svg>
