/* XPM */
static char const * icon_xpm[]={
"32 32 5 1",
"# c #000000",
". c #0080ff",
"b c #808000",
"a c #c0c000",
"c c #ffff00",
"................................",
"................................",
"................................",
"................................",
"................................",
"................................",
"...............##...............",
".............##aa##.............",
"...........##aaaaaa##...........",
".........##aaaaaaaaaa##.........",
".......##aaaaaaaaaaaaaa##.......",
".....##aaaaaaaaaaaaaaaaaa##.....",
"...##aaaaaaaaaaaaaaaaaaaaaa##...",
".##aaaaaaaaaaaaaaaaaaaaaaaaaa##.",
".#b##aaaaaaaaaaaaaaaaaaaaaa##c#.",
".#bbb##aaaaaaaaaaaaaaaaaa##ccc#.",
".#bbbbb##aaaaaaaaaaaaaa##ccccc#.",
".##bbbbbb##aaaaaaaaaa##cccccc##.",
"...##bbbbbb##aaaaaa##cccccc##...",
".....##bbbbbb##aa##cccccc##.....",
".......##bbbbbb##cccccc##.......",
".........##bbbbbccccc##.........",
"...........##bbbccc##...........",
".............##bc##.............",
"...............##...............",
"................................",
"................................",
"................................",
"................................",
"................................",
"................................",
"................................"};
