/* XPM */
static char const * icon_xpm[] = {
"32 32 6 1",
"0	c #000000",
"1	c #5656FF",
"2	c #FFFF3A",
"3	c #FF2800",
"4	c #C8C8C8",
"5	c #FFFFFF",
"00000000000000000000000000000000",
"01111111111111111111110333333330",
"01111111111111111111110333333330",
"01111111111111111111110333333330",
"01111111111111111111110333333330",
"01111111111111111111110333333330",
"01111111111111111111110333333330",
"01111111111111111111110333333330",
"01111111111111111111110333333330",
"00000000000000000000000333333330",
"04444444400000000000000333333330",
"04444444400055555555000333333330",
"04444444400055555555000333333330",
"04444444400055000000000333333330",
"04444444400055000000000333333330",
"04444444400055555555000333333330",
"04444444400055555555000333333330",
"04444444400055000000000333333330",
"04444444400055000000000333333330",
"04444444400055555555000333333330",
"04444444400055555555000333333330",
"04444444400000000000000333333330",
"04444444400000000000000000000000",
"04444444402222222222222222222220",
"04444444402222222222222222222220",
"04444444402222222222222222222220",
"04444444402222222222222222222220",
"04444444402222222222222222222220",
"04444444402222222222222222222220",
"04444444402222222222222222222220",
"04444444402222222222222222222220",
"00000000000000000000000000000000"
};
